<?xml version="1.0" encoding="utf-8"?>
<!-- Generator: Circuit Diagram, cdlibrary.dll 1.0.0.0 -->
<!DOCTYPE svg PUBLIC "-//W3C//DTD SVG 1.1//EN" "http://www.w3.org/Graphics/SVG/1.1/DTD/svg11.dtd">
<svg version="1.1" width="680" height="400" xmlns="http://www.w3.org/2000/svg">
	<line x1="610" y1="180" x2="610" y2="240" style="stroke:rgb(0,0,0);stroke-linecap:square;stroke-width:2" />
	<line x1="310" y1="240" x2="610" y2="240" style="stroke:rgb(0,0,0);stroke-linecap:square;stroke-width:2" />
	<line x1="300" y1="250" x2="620" y2="250" style="stroke:rgb(0,0,0);stroke-linecap:square;stroke-width:2" />
	<line x1="620" y1="170" x2="620" y2="250" style="stroke:rgb(0,0,0);stroke-linecap:square;stroke-width:2" />
	<line x1="290" y1="260" x2="630" y2="260" style="stroke:rgb(0,0,0);stroke-linecap:square;stroke-width:2" />
	<line x1="630" y1="160" x2="630" y2="260" style="stroke:rgb(0,0,0);stroke-linecap:square;stroke-width:2" />
	<line x1="320" y1="230" x2="640" y2="230" style="stroke:rgb(0,0,0);stroke-linecap:square;stroke-width:2" />
	<line x1="640" y1="150" x2="640" y2="230" style="stroke:rgb(0,0,0);stroke-linecap:square;stroke-width:2" />
	<line x1="590" y1="150" x2="640" y2="150" style="stroke:rgb(0,0,0);stroke-linecap:square;stroke-width:2" />
	<line x1="570" y1="180" x2="610" y2="180" style="stroke:rgb(0,0,0);stroke-linecap:square;stroke-width:2" />
	<line x1="570" y1="170" x2="620" y2="170" style="stroke:rgb(0,0,0);stroke-linecap:square;stroke-width:2" />
	<line x1="570" y1="160" x2="630" y2="160" style="stroke:rgb(0,0,0);stroke-linecap:square;stroke-width:2" />
	<line x1="570" y1="150" x2="590" y2="150" style="stroke:rgb(0,0,0);stroke-linecap:square;stroke-width:2" />
	<line x1="570" y1="140" x2="650" y2="140" style="stroke:rgb(0,0,0);stroke-linecap:square;stroke-width:2" />
	<line x1="650" y1="140" x2="650" y2="270" style="stroke:rgb(0,0,0);stroke-linecap:square;stroke-width:2" />
	<line x1="280" y1="270" x2="650" y2="270" style="stroke:rgb(0,0,0);stroke-linecap:square;stroke-width:2" />
	<line x1="320" y1="150" x2="320" y2="230" style="stroke:rgb(0,0,0);stroke-linecap:square;stroke-width:2" />
	<line x1="310" y1="160" x2="310" y2="240" style="stroke:rgb(0,0,0);stroke-linecap:square;stroke-width:2" />
	<line x1="300" y1="170" x2="300" y2="250" style="stroke:rgb(0,0,0);stroke-linecap:square;stroke-width:2" />
	<line x1="260" y1="150" x2="320" y2="150" style="stroke:rgb(0,0,0);stroke-linecap:square;stroke-width:2" />
	<line x1="260" y1="160" x2="310" y2="160" style="stroke:rgb(0,0,0);stroke-linecap:square;stroke-width:2" />
	<line x1="260" y1="170" x2="300" y2="170" style="stroke:rgb(0,0,0);stroke-linecap:square;stroke-width:2" />
	<line x1="290" y1="180" x2="290" y2="260" style="stroke:rgb(0,0,0);stroke-linecap:square;stroke-width:2" />
	<line x1="260" y1="180" x2="290" y2="180" style="stroke:rgb(0,0,0);stroke-linecap:square;stroke-width:2" />
	<line x1="280" y1="190" x2="280" y2="270" style="stroke:rgb(0,0,0);stroke-linecap:square;stroke-width:2" />
	<line x1="260" y1="190" x2="280" y2="190" style="stroke:rgb(0,0,0);stroke-linecap:square;stroke-width:2" />
	<text x="598" y="130" style="font-family:Arial;font-size:12px;text-anchor:start" dy=".3em">Output 0</text>
	<line x1="570" y1="130" x2="587" y2="130" style="stroke:rgb(0,0,0);stroke-linecap:square;stroke-width:2" />
	<ellipse cx="590" cy="130" rx="3" ry="3" style="fill-opacity:0;fill:rgb(0,0,0);stroke:rgb(0,0,0);stroke-width:2" />
	<text x="392" y="180" style="font-family:Arial;font-size:12px;text-anchor:end" dy=".3em">Output 7</text>
	<line x1="403" y1="180" x2="430" y2="180" style="stroke:rgb(0,0,0);stroke-linecap:square;stroke-width:2" />
	<ellipse cx="400" cy="180" rx="3" ry="3" style="fill-opacity:0;fill:rgb(0,0,0);stroke:rgb(0,0,0);stroke-width:2" />
	<text x="392" y="170" style="font-family:Arial;font-size:12px;text-anchor:end" dy=".3em">Output 6</text>
	<line x1="403" y1="170" x2="430" y2="170" style="stroke:rgb(0,0,0);stroke-linecap:square;stroke-width:2" />
	<ellipse cx="400" cy="170" rx="3" ry="3" style="fill-opacity:0;fill:rgb(0,0,0);stroke:rgb(0,0,0);stroke-width:2" />
	<text x="392" y="160" style="font-family:Arial;font-size:12px;text-anchor:end" dy=".3em">Output 5</text>
	<line x1="403" y1="160" x2="430" y2="160" style="stroke:rgb(0,0,0);stroke-linecap:square;stroke-width:2" />
	<ellipse cx="400" cy="160" rx="3" ry="3" style="fill-opacity:0;fill:rgb(0,0,0);stroke:rgb(0,0,0);stroke-width:2" />
	<text x="392" y="150" style="font-family:Arial;font-size:12px;text-anchor:end" dy=".3em">Output 4</text>
	<line x1="403" y1="150" x2="430" y2="150" style="stroke:rgb(0,0,0);stroke-linecap:square;stroke-width:2" />
	<ellipse cx="400" cy="150" rx="3" ry="3" style="fill-opacity:0;fill:rgb(0,0,0);stroke:rgb(0,0,0);stroke-width:2" />
	<text x="55" y="40" style="font-family:Arial;font-size:12px;text-anchor:end" dy=".3em">+5V</text>
	<line x1="60" y1="40" x2="100" y2="40" style="stroke:rgb(0,0,0);stroke-linecap:square;stroke-width:2" />
	<text x="392" y="130" style="font-family:Arial;font-size:12px;text-anchor:end" dy=".3em">Output 2</text>
	<line x1="403" y1="130" x2="430" y2="130" style="stroke:rgb(0,0,0);stroke-linecap:square;stroke-width:2" />
	<ellipse cx="400" cy="130" rx="3" ry="3" style="fill-opacity:0;fill:rgb(0,0,0);stroke:rgb(0,0,0);stroke-width:2" />
	<text x="392" y="140" style="font-family:Arial;font-size:12px;text-anchor:end" dy=".3em">Output 3</text>
	<line x1="403" y1="140" x2="430" y2="140" style="stroke:rgb(0,0,0);stroke-linecap:square;stroke-width:2" />
	<ellipse cx="400" cy="140" rx="3" ry="3" style="fill-opacity:0;fill:rgb(0,0,0);stroke:rgb(0,0,0);stroke-width:2" />
	<text x="392" y="120" style="font-family:Arial;font-size:12px;text-anchor:end" dy=".3em">Output 1</text>
	<line x1="403" y1="120" x2="430" y2="120" style="stroke:rgb(0,0,0);stroke-linecap:square;stroke-width:2" />
	<ellipse cx="400" cy="120" rx="3" ry="3" style="fill-opacity:0;fill:rgb(0,0,0);stroke:rgb(0,0,0);stroke-width:2" />
	<line x1="430" y1="190" x2="430" y2="360" style="stroke:rgb(0,0,0);stroke-linecap:square;stroke-width:2" />
	<line x1="100" y1="360" x2="610" y2="360" style="stroke:rgb(0,0,0);stroke-linecap:square;stroke-width:2" />
	<line x1="60" y1="360" x2="100" y2="360" style="stroke:rgb(0,0,0);stroke-linecap:square;stroke-width:2" />
	<line x1="60" y1="360" x2="60" y2="368" style="stroke:rgb(0,0,0);stroke-linecap:square;stroke-width:2" />
	<path d="M 52,368 L 68,368 L 60,376 L 52,368" style="fill-opacity:0;fill:rgb(0,0,0);stroke:rgb(0,0,0);stroke-width:2" />
	<line x1="100" y1="190" x2="100" y2="360" style="stroke:rgb(0,0,0);stroke-linecap:square;stroke-width:2" />
	<line x1="100" y1="190" x2="130" y2="190" style="stroke:rgb(0,0,0);stroke-linecap:square;stroke-width:2" />
	<line x1="570" y1="40" x2="570" y2="120" style="stroke:rgb(0,0,0);stroke-linecap:square;stroke-width:2" />
	<line x1="100" y1="40" x2="610" y2="40" style="stroke:rgb(0,0,0);stroke-linecap:square;stroke-width:2" />
	<line x1="100" y1="180" x2="130" y2="180" style="stroke:rgb(0,0,0);stroke-linecap:square;stroke-width:2" />
	<line x1="100" y1="40" x2="100" y2="180" style="stroke:rgb(0,0,0);stroke-linecap:square;stroke-width:2" />
	<rect x="135" y="95" width="120" height="195" style="fill-opacity:0;stroke:rgb(0,0,0);stroke-width:2" />
	<text x="171" y="125" style="font-family:Arial;font-size:11px;text-anchor:start" dy=".3em">ARDUINO</text>
	<text x="178" y="135" style="font-family:Arial;font-size:11px;text-anchor:start" dy=".3em">UNO r3</text>
	<line x1="130" y1="150" x2="135" y2="150" style="stroke:rgb(0,0,0);stroke-linecap:square;stroke-width:2" />
	<line x1="130" y1="160" x2="135" y2="160" style="stroke:rgb(0,0,0);stroke-linecap:square;stroke-width:2" />
	<line x1="130" y1="170" x2="135" y2="170" style="stroke:rgb(0,0,0);stroke-linecap:square;stroke-width:2" />
	<line x1="130" y1="180" x2="135" y2="180" style="stroke:rgb(0,0,0);stroke-linecap:square;stroke-width:2" />
	<line x1="130" y1="190" x2="135" y2="190" style="stroke:rgb(0,0,0);stroke-linecap:square;stroke-width:2" />
	<line x1="130" y1="200" x2="135" y2="200" style="stroke:rgb(0,0,0);stroke-linecap:square;stroke-width:2" />
	<line x1="130" y1="210" x2="135" y2="210" style="stroke:rgb(0,0,0);stroke-linecap:square;stroke-width:2" />
	<line x1="130" y1="230" x2="135" y2="230" style="stroke:rgb(0,0,0);stroke-linecap:square;stroke-width:2" />
	<line x1="130" y1="240" x2="135" y2="240" style="stroke:rgb(0,0,0);stroke-linecap:square;stroke-width:2" />
	<line x1="130" y1="250" x2="135" y2="250" style="stroke:rgb(0,0,0);stroke-linecap:square;stroke-width:2" />
	<line x1="130" y1="260" x2="135" y2="260" style="stroke:rgb(0,0,0);stroke-linecap:square;stroke-width:2" />
	<line x1="130" y1="270" x2="135" y2="270" style="stroke:rgb(0,0,0);stroke-linecap:square;stroke-width:2" />
	<line x1="130" y1="280" x2="135" y2="280" style="stroke:rgb(0,0,0);stroke-linecap:square;stroke-width:2" />
	<line x1="255" y1="120" x2="260" y2="120" style="stroke:rgb(0,0,0);stroke-linecap:square;stroke-width:2" />
	<line x1="255" y1="130" x2="260" y2="130" style="stroke:rgb(0,0,0);stroke-linecap:square;stroke-width:2" />
	<line x1="255" y1="140" x2="260" y2="140" style="stroke:rgb(0,0,0);stroke-linecap:square;stroke-width:2" />
	<line x1="255" y1="150" x2="260" y2="150" style="stroke:rgb(0,0,0);stroke-linecap:square;stroke-width:2" />
	<line x1="255" y1="160" x2="260" y2="160" style="stroke:rgb(0,0,0);stroke-linecap:square;stroke-width:2" />
	<line x1="255" y1="170" x2="260" y2="170" style="stroke:rgb(0,0,0);stroke-linecap:square;stroke-width:2" />
	<line x1="255" y1="180" x2="260" y2="180" style="stroke:rgb(0,0,0);stroke-linecap:square;stroke-width:2" />
	<line x1="255" y1="190" x2="260" y2="190" style="stroke:rgb(0,0,0);stroke-linecap:square;stroke-width:2" />
	<line x1="255" y1="210" x2="260" y2="210" style="stroke:rgb(0,0,0);stroke-linecap:square;stroke-width:2" />
	<line x1="255" y1="220" x2="260" y2="220" style="stroke:rgb(0,0,0);stroke-linecap:square;stroke-width:2" />
	<line x1="255" y1="230" x2="260" y2="230" style="stroke:rgb(0,0,0);stroke-linecap:square;stroke-width:2" />
	<line x1="255" y1="240" x2="260" y2="240" style="stroke:rgb(0,0,0);stroke-linecap:square;stroke-width:2" />
	<line x1="255" y1="250" x2="260" y2="250" style="stroke:rgb(0,0,0);stroke-linecap:square;stroke-width:2" />
	<line x1="255" y1="260" x2="260" y2="260" style="stroke:rgb(0,0,0);stroke-linecap:square;stroke-width:2" />
	<line x1="255" y1="270" x2="260" y2="270" style="stroke:rgb(0,0,0);stroke-linecap:square;stroke-width:2" />
	<line x1="255" y1="280" x2="260" y2="280" style="stroke:rgb(0,0,0);stroke-linecap:square;stroke-width:2" />
	<text x="139" y="150" style="font-family:Arial;font-size:11px;text-anchor:start" dy=".3em">IOREF</text>
	<text x="139" y="160" style="font-family:Arial;font-size:11px;text-anchor:start" dy=".3em">RESET</text>
	<text x="139" y="170" style="font-family:Arial;font-size:11px;text-anchor:start" dy=".3em">3.3V</text>
	<text x="139" y="180" style="font-family:Arial;font-size:11px;text-anchor:start" dy=".3em">5V</text>
	<text x="139" y="190" style="font-family:Arial;font-size:11px;text-anchor:start" dy=".3em">GND</text>
	<text x="139" y="200" style="font-family:Arial;font-size:11px;text-anchor:start" dy=".3em">GND</text>
	<text x="139" y="210" style="font-family:Arial;font-size:11px;text-anchor:start" dy=".3em">Vin</text>
	<text x="139" y="230" style="font-family:Arial;font-size:11px;text-anchor:start" dy=".3em">A0</text>
	<text x="139" y="240" style="font-family:Arial;font-size:11px;text-anchor:start" dy=".3em">A1</text>
	<text x="139" y="250" style="font-family:Arial;font-size:11px;text-anchor:start" dy=".3em">A2</text>
	<text x="139" y="260" style="font-family:Arial;font-size:11px;text-anchor:start" dy=".3em">A3</text>
	<text x="139" y="270" style="font-family:Arial;font-size:11px;text-anchor:start" dy=".3em">A4</text>
	<text x="139" y="280" style="font-family:Arial;font-size:11px;text-anchor:start" dy=".3em">A5</text>
	<text x="251" y="120" style="font-family:Arial;font-size:11px;text-anchor:end" dy=".3em">AREF</text>
	<text x="251" y="130" style="font-family:Arial;font-size:11px;text-anchor:end" dy=".3em">GND</text>
	<text x="251" y="140" style="font-family:Arial;font-size:11px;text-anchor:end" dy=".3em">D13</text>
	<text x="251" y="150" style="font-family:Arial;font-size:11px;text-anchor:end" dy=".3em">D12</text>
	<text x="251" y="160" style="font-family:Arial;font-size:11px;text-anchor:end" dy=".3em">PWM D11</text>
	<text x="251" y="170" style="font-family:Arial;font-size:11px;text-anchor:end" dy=".3em">PWM D10</text>
	<text x="251" y="180" style="font-family:Arial;font-size:11px;text-anchor:end" dy=".3em">PWM   D9</text>
	<text x="251" y="190" style="font-family:Arial;font-size:11px;text-anchor:end" dy=".3em">D8</text>
	<text x="251" y="210" style="font-family:Arial;font-size:11px;text-anchor:end" dy=".3em">D7</text>
	<text x="251" y="220" style="font-family:Arial;font-size:11px;text-anchor:end" dy=".3em">PWM   D6</text>
	<text x="251" y="230" style="font-family:Arial;font-size:11px;text-anchor:end" dy=".3em">PWM   D5</text>
	<text x="251" y="240" style="font-family:Arial;font-size:11px;text-anchor:end" dy=".3em">D4</text>
	<text x="251" y="250" style="font-family:Arial;font-size:11px;text-anchor:end" dy=".3em">PWM   D3</text>
	<text x="251" y="260" style="font-family:Arial;font-size:11px;text-anchor:end" dy=".3em">D2</text>
	<text x="251" y="270" style="font-family:Arial;font-size:11px;text-anchor:end" dy=".3em">TX   D1</text>
	<text x="251" y="280" style="font-family:Arial;font-size:11px;text-anchor:end" dy=".3em">RX   D0</text>
	<path d="M 195,110 M 195,110 c 2,9 15,9 15,0 c 0,-9 -13,-9 -15,0" style="fill-opacity:0;fill:rgb(0,0,0);stroke:rgb(0,0,0);stroke-width:2" />
	<path d="M 195,110 M 195,110 c -2,-9 -15,-9 -15,0 c 0,9 13,9 15,0" style="fill-opacity:0;fill:rgb(0,0,0);stroke:rgb(0,0,0);stroke-width:2" />
	<line x1="201" y1="110" x2="205" y2="110" style="stroke:rgb(0,0,0);stroke-linecap:square;stroke-width:2" />
	<line x1="203" y1="112" x2="203" y2="108" style="stroke:rgb(0,0,0);stroke-linecap:square;stroke-width:2" />
	<line x1="189" y1="110" x2="185" y2="110" style="stroke:rgb(0,0,0);stroke-linecap:square;stroke-width:2" />
	<text x="500" y="100" style="font-family:Arial;font-size:11px;text-anchor:middle" dy=".3em">74HC595</text>
	<rect x="450" y="110" width="100" height="90" style="fill-opacity:0;stroke:rgb(0,0,0);stroke-width:2" />
	<line x1="430" y1="120" x2="450" y2="120" style="stroke:rgb(0,0,0);stroke-linecap:square;stroke-width:2" />
	<text x="454" y="120" style="font-family:Arial;font-size:11px;text-anchor:start" dy=".3em">Q1</text>
	<line x1="550" y1="120" x2="570" y2="120" style="stroke:rgb(0,0,0);stroke-linecap:square;stroke-width:2" />
	<text x="546" y="120" style="font-family:Arial;font-size:11px;text-anchor:end" dy=".3em">VCC</text>
	<line x1="430" y1="130" x2="450" y2="130" style="stroke:rgb(0,0,0);stroke-linecap:square;stroke-width:2" />
	<text x="454" y="130" style="font-family:Arial;font-size:11px;text-anchor:start" dy=".3em">Q2</text>
	<line x1="550" y1="130" x2="570" y2="130" style="stroke:rgb(0,0,0);stroke-linecap:square;stroke-width:2" />
	<text x="546" y="130" style="font-family:Arial;font-size:11px;text-anchor:end" dy=".3em">Q0</text>
	<line x1="430" y1="140" x2="450" y2="140" style="stroke:rgb(0,0,0);stroke-linecap:square;stroke-width:2" />
	<text x="454" y="140" style="font-family:Arial;font-size:11px;text-anchor:start" dy=".3em">Q3</text>
	<line x1="550" y1="140" x2="570" y2="140" style="stroke:rgb(0,0,0);stroke-linecap:square;stroke-width:2" />
	<text x="546" y="140" style="font-family:Arial;font-size:11px;text-anchor:end" dy=".3em">DS</text>
	<line x1="430" y1="150" x2="450" y2="150" style="stroke:rgb(0,0,0);stroke-linecap:square;stroke-width:2" />
	<text x="454" y="150" style="font-family:Arial;font-size:11px;text-anchor:start" dy=".3em">Q4</text>
	<line x1="550" y1="150" x2="570" y2="150" style="stroke:rgb(0,0,0);stroke-linecap:square;stroke-width:2" />
	<text x="546" y="150" style="font-family:Arial;font-size:11px;text-anchor:end" dy=".3em">/OE</text>
	<line x1="430" y1="160" x2="450" y2="160" style="stroke:rgb(0,0,0);stroke-linecap:square;stroke-width:2" />
	<text x="454" y="160" style="font-family:Arial;font-size:11px;text-anchor:start" dy=".3em">Q5</text>
	<line x1="550" y1="160" x2="570" y2="160" style="stroke:rgb(0,0,0);stroke-linecap:square;stroke-width:2" />
	<text x="546" y="160" style="font-family:Arial;font-size:11px;text-anchor:end" dy=".3em">ST_CP</text>
	<line x1="430" y1="170" x2="450" y2="170" style="stroke:rgb(0,0,0);stroke-linecap:square;stroke-width:2" />
	<text x="454" y="170" style="font-family:Arial;font-size:11px;text-anchor:start" dy=".3em">Q6</text>
	<line x1="550" y1="170" x2="570" y2="170" style="stroke:rgb(0,0,0);stroke-linecap:square;stroke-width:2" />
	<text x="546" y="170" style="font-family:Arial;font-size:11px;text-anchor:end" dy=".3em">SH_CP</text>
	<line x1="430" y1="180" x2="450" y2="180" style="stroke:rgb(0,0,0);stroke-linecap:square;stroke-width:2" />
	<text x="454" y="180" style="font-family:Arial;font-size:11px;text-anchor:start" dy=".3em">Q7</text>
	<line x1="550" y1="180" x2="570" y2="180" style="stroke:rgb(0,0,0);stroke-linecap:square;stroke-width:2" />
	<text x="546" y="180" style="font-family:Arial;font-size:11px;text-anchor:end" dy=".3em">/MR</text>
	<line x1="430" y1="190" x2="450" y2="190" style="stroke:rgb(0,0,0);stroke-linecap:square;stroke-width:2" />
	<text x="454" y="190" style="font-family:Arial;font-size:11px;text-anchor:start" dy=".3em">GND</text>
	<line x1="550" y1="190" x2="570" y2="190" style="stroke:rgb(0,0,0);stroke-linecap:square;stroke-width:2" />
	<text x="546" y="190" style="font-family:Arial;font-size:11px;text-anchor:end" dy=".3em">Q7'</text>
	<ellipse cx="100" cy="40" rx="2" ry="2" style="fill-opacity:1;fill:rgb(0,0,0);stroke:rgb(0,0,0);stroke-width:2" />
	<ellipse cx="430" cy="360" rx="2" ry="2" style="fill-opacity:1;fill:rgb(0,0,0);stroke:rgb(0,0,0);stroke-width:2" />
	<ellipse cx="100" cy="360" rx="2" ry="2" style="fill-opacity:1;fill:rgb(0,0,0);stroke:rgb(0,0,0);stroke-width:2" />
	<ellipse cx="570" cy="40" rx="2" ry="2" style="fill-opacity:1;fill:rgb(0,0,0);stroke:rgb(0,0,0);stroke-width:2" />
</svg>